HIERARCHY
ROOT Hips
{
	OFFSET 0.000000 0.000000 0.000000 
	CHANNELS 6 Xposition Yposition Zposition Zrotation Yrotation Xrotation
	JOINT LeftUpLeg
	{
		OFFSET 1.363060 -1.794630 0.839290 
		CHANNELS 3 Zrotation Yrotation Xrotation
		JOINT LeftLeg
		{
			OFFSET 2.448110 -6.726130 0.000000 
			CHANNELS 3 Zrotation Yrotation Xrotation
			JOINT LeftFoot
			{
				OFFSET 2.562200 -7.039590 0.000000 
				CHANNELS 3 Zrotation Yrotation Xrotation
				JOINT LeftToeBase
				{
					OFFSET 0.157640 -0.433110 2.322550 
					CHANNELS 3 Zrotation Yrotation Xrotation
					End Site
					{
						OFFSET 0.000000 0.000000 0.000000 
					}
				}
			}
		}
	}
	JOINT RightUpLeg
	{
		OFFSET -1.305520 -1.794630 0.839290 
		CHANNELS 3 Zrotation Yrotation Xrotation
		JOINT RightLeg
		{
			OFFSET -2.542530 -6.985550 0.000000 
			CHANNELS 3 Zrotation Yrotation Xrotation
			JOINT RightFoot
			{
				OFFSET -2.568260 -7.056230 0.000000 
				CHANNELS 3 Zrotation Yrotation Xrotation
				JOINT RightToeBase
				{
					OFFSET -0.164730 -0.452590 2.363150 
					CHANNELS 3 Zrotation Yrotation Xrotation
					End Site
					{
						OFFSET 0.000000 0.000000 0.000000 
					}
				}
			}
		}
	}
	JOINT Spine
	{
		OFFSET 0.028270 2.035590 -0.193380 
		CHANNELS 3 Zrotation Yrotation Xrotation
		JOINT Spine1
		{
			OFFSET 0.056720 2.048850 -0.042750 
			CHANNELS 3 Zrotation Yrotation Xrotation
			JOINT Neck1
			{
				OFFSET -0.054170 1.746240 0.172020 
				CHANNELS 3 Zrotation Yrotation Xrotation
				JOINT Head
				{
					OFFSET 0.104070 1.761360 -0.123970 
					CHANNELS 3 Zrotation Yrotation Xrotation
					End Site
					{
						OFFSET 0.000000 0.000000 0.000000 
					}
				}
			}
			JOINT LeftArm
			{
				OFFSET 3.362410 1.200890 -0.311210 
				CHANNELS 3 Zrotation Yrotation Xrotation
				JOINT LeftForeArm
				{
					OFFSET 4.983000 -0.000000 -0.000000 
					CHANNELS 3 Zrotation Yrotation Xrotation
					JOINT LeftHand
					{
						OFFSET 3.483560 -0.000000 -0.000000 
						CHANNELS 3 Zrotation Yrotation Xrotation
						JOINT LeftHandIndex1
						{
							OFFSET 0.715260 -0.000000 -0.000000 
							CHANNELS 3 Zrotation Yrotation Xrotation
							End Site
							{
								OFFSET 0.000000 0.000000 0.000000 
							}
						}
					}
				}
			}
			JOINT RightArm
			{
				OFFSET -3.136600 1.374050 -0.404650 
				CHANNELS 3 Zrotation Yrotation Xrotation
				JOINT RightForeArm
				{
					OFFSET -5.241900 -0.000000 -0.000000 
					CHANNELS 3 Zrotation Yrotation Xrotation
					JOINT RightHand
					{
						OFFSET -3.444170 -0.000000 -0.000000 
						CHANNELS 3 Zrotation Yrotation Xrotation
						JOINT RightHandIndex1
						{
							OFFSET -0.622530 -0.000000 -0.000000 
							CHANNELS 3 Zrotation Yrotation Xrotation
							End Site
							{
								OFFSET 0.000000 0.000000 0.000000 
							}
						}
					}
				}
			}
		}
	}
}
MOTION
Frames: 18
Frame Time: 0.041667
-4.505660 18.097052 20.830546 0.389770 0.937005 38.256878 -11.019039 -14.518152 -32.220089 -2.731613 8.334979 15.884515 -6.993798 23.648105 -0.088704 0.024500 -1.009600 -2.775200 5.622758 26.465350 -35.800737 2.574975 -11.879054 21.653815 6.774608 -25.352746 -10.478845 0.000000 -0.044900 0.123300 0.738964 1.168544 -53.963328 -0.310203 -0.228920 0.634276 6.278548 -8.458461 23.138460 2.196200 -3.898000 12.635900 -85.815940 17.952954 38.770389 21.161952 -25.256326 -3.731825 0.755833 4.769817 9.535543 -7.125000 0.000000 0.000000 81.160159 -18.505301 30.907642 -29.134817 31.206849 -4.634551 -1.243435 -5.468116 16.981862 7.125000 0.000000 0.000000 
-4.505452 18.096636 20.830130 0.399070 0.932453 38.255354 -11.024753 -14.522743 -32.220839 -2.732812 8.332732 15.878792 -6.993038 23.646157 -0.095053 0.024300 -1.005600 -2.764300 5.629478 26.430828 -35.814513 2.572981 -11.884922 21.666555 6.769499 -25.335967 -10.447284 -0.000100 -0.050800 0.139700 0.705014 1.153285 -53.962160 -0.308215 -0.231629 0.628403 6.228493 -8.444399 23.151063 2.174500 -3.895900 12.642000 -85.809700 17.928127 38.773625 21.152252 -25.245575 -3.728577 0.757168 4.768725 9.544874 -7.125000 0.000000 0.000000 81.139567 -18.476639 30.968055 -29.125313 31.211723 -4.642837 -1.221730 -5.508386 16.888052 7.125000 0.000000 0.000000 
-4.504827 18.096844 20.832003 0.410471 0.927768 38.245889 -11.043700 -14.516260 -32.213815 -2.732331 8.335910 15.892164 -6.986919 23.626787 -0.107676 0.024500 -1.011300 -2.779900 5.645957 26.390851 -35.799490 2.571942 -11.884380 21.675070 6.759468 -25.298873 -10.433346 -0.000100 -0.051900 0.142500 0.677243 1.141422 -53.963144 -0.303015 -0.233135 0.631730 6.186599 -8.427514 23.147651 2.157600 -3.893400 12.631200 -85.803512 17.951316 38.792636 21.150046 -25.241377 -3.727966 0.759799 4.768526 9.533279 -7.125000 0.000000 0.000000 81.157809 -18.485979 30.920525 -29.133370 31.217218 -4.639970 -1.201840 -5.508166 16.954091 7.125000 0.000000 0.000000 
-4.502434 18.096115 20.830026 0.406183 0.931153 38.287490 -11.029868 -14.530077 -32.259980 -2.731889 8.340453 15.890329 -6.991673 23.647694 -0.102233 0.024400 -1.008800 -2.773000 5.639950 26.345727 -35.870039 2.572987 -11.893938 21.675429 6.749848 -25.276347 -10.374749 0.000000 -0.030000 0.082500 0.632614 1.135578 -53.968983 -0.328043 -0.226273 0.633425 6.171507 -8.434888 23.104568 2.151600 -3.901100 12.606100 -85.789648 17.926974 38.833455 21.142327 -25.237025 -3.727878 0.764019 4.773044 9.513671 -7.125000 0.000000 0.000000 81.142665 -18.481672 30.929680 -29.155059 31.233107 -4.641795 -1.205202 -5.494546 16.955046 7.125000 0.000000 0.000000 
-4.502121 18.096219 20.830858 0.406280 0.929509 38.276375 -11.033452 -14.529184 -32.248532 -2.731450 8.340701 15.894313 -6.991871 23.646259 -0.106875 0.024500 -1.010000 -2.776400 5.654170 26.331427 -35.856544 2.572413 -11.892590 21.679065 6.746617 -25.263470 -10.365143 0.000000 -0.028700 0.078900 0.614833 1.131366 -53.964255 -0.327343 -0.224798 0.641045 6.140977 -8.415418 23.118343 2.138300 -3.894200 12.614000 -85.783070 17.917560 38.839597 21.137915 -25.232324 -3.727183 0.763633 4.775197 9.519972 -7.125000 0.000000 0.000000 81.144586 -18.470488 30.908696 -29.160398 31.237801 -4.640243 -1.197465 -5.491342 16.989904 7.125000 0.000000 0.000000 
-4.502121 18.096532 20.832003 0.404387 0.929017 38.259522 -11.036489 -14.526272 -32.231174 -2.730759 8.341023 15.900184 -6.991674 23.642292 -0.111287 0.024600 -1.012100 -2.782200 5.671313 26.325459 -35.832070 2.572035 -11.888987 21.680968 6.745650 -25.256839 -10.362930 0.000000 -0.027200 0.074700 0.604117 1.129471 -53.957412 -0.324103 -0.223474 0.651691 6.107722 -8.392059 23.140463 2.122800 -3.884600 12.628100 -85.775995 17.910208 38.837979 21.140480 -25.235379 -3.728606 0.761153 4.777972 9.528467 -7.125000 0.000000 0.000000 81.149024 -18.457556 30.880270 -29.165299 31.241571 -4.637788 -1.191473 -5.485062 17.034631 7.125000 0.000000 0.000000 
-4.502225 18.096740 20.833148 0.400666 0.931287 38.244789 -11.036520 -14.522171 -32.213603 -2.730555 8.339344 15.900020 -6.991536 23.639594 -0.108428 0.024700 -1.014900 -2.789800 5.687552 26.324015 -35.809539 2.571831 -11.885502 21.681769 6.746123 -25.255558 -10.364574 -0.000000 -0.025600 0.070400 0.594820 1.128096 -53.950710 -0.321655 -0.222242 0.662013 6.074596 -8.368480 23.160843 2.106600 -3.874200 12.642100 -85.768001 17.900685 38.833038 21.143233 -25.238613 -3.730041 0.758628 4.780472 9.537151 -7.125000 0.000000 0.000000 81.153779 -18.442366 30.856022 -29.167769 31.243859 -4.635599 -1.186310 -5.480548 17.067917 7.125000 0.000000 0.000000 
-4.502538 18.097052 20.834293 0.397751 0.935499 38.228982 -11.037648 -14.515759 -32.196497 -2.730218 8.338354 15.902206 -6.989689 23.632128 -0.104346 0.024900 -1.018700 -2.800400 5.702029 26.328497 -35.783504 2.571666 -11.881550 21.682247 6.748154 -25.258853 -10.375027 0.000000 -0.026500 0.072700 0.584634 1.125663 -53.943637 -0.317770 -0.221551 0.672165 6.044350 -8.343976 23.175403 2.090900 -3.862800 12.652900 -85.756133 17.893658 38.828072 21.150593 -25.246881 -3.732450 0.756121 4.781840 9.544259 -7.125000 0.000000 0.000000 81.163850 -18.425261 30.827657 -29.165618 31.243611 -4.633437 -1.181549 -5.479142 17.095613 7.125000 0.000000 0.000000 
-4.502329 18.097052 20.834397 0.395357 0.942849 38.232038 -11.034326 -14.514023 -32.202231 -2.729805 8.340232 15.905271 -6.987146 23.626544 -0.097488 0.025100 -1.022300 -2.810200 5.709983 26.318933 -35.785729 2.572154 -11.880868 21.681027 6.747855 -25.257831 -10.369377 -0.000000 -0.023000 0.063200 0.566431 1.121581 -53.942181 -0.320855 -0.219947 0.675745 6.017202 -8.327708 23.163135 2.076400 -3.856100 12.646400 -85.742251 17.885074 38.832980 21.155412 -25.252937 -3.734150 0.755285 4.782781 9.541068 -7.125000 0.000000 0.000000 81.171319 -18.412674 30.810899 -29.164436 31.244886 -4.633458 -1.178364 -5.481298 17.103996 7.125000 0.000000 0.000000 
-4.502225 18.097052 20.834501 0.394429 0.951554 38.236391 -11.032757 -14.510764 -32.211060 -2.729276 8.342895 15.910088 -6.983421 23.618089 -0.089205 0.025200 -1.025700 -2.819600 5.715369 26.310687 -35.789275 2.572552 -11.880569 21.680043 6.747803 -25.257940 -10.367966 0.000000 -0.021700 0.059700 0.544904 1.116055 -53.941327 -0.323988 -0.218553 0.678293 5.998647 -8.312337 23.141558 2.065900 -3.849400 12.634500 -85.723962 17.877050 38.844933 21.160476 -25.259156 -3.735657 0.755938 4.782497 9.536565 -7.125000 0.000000 0.000000 81.181406 -18.400329 30.798023 -29.160787 31.244310 -4.633537 -1.179691 -5.482507 17.098834 7.125000 0.000000 0.000000 
-4.502121 18.097052 20.834501 0.394761 0.961067 38.242012 -11.031497 -14.508568 -32.222197 -2.728736 8.346291 15.916578 -6.978734 23.607177 -0.082970 0.025300 -1.027500 -2.824600 5.719466 26.301565 -35.794457 2.572998 -11.880636 21.679469 6.747911 -25.258095 -10.367037 -0.000000 -0.021600 0.059400 0.523409 1.110259 -53.941809 -0.326336 -0.217436 0.678508 5.991474 -8.295977 23.108785 2.061200 -3.842000 12.615500 -85.703429 17.870420 38.865901 21.164734 -25.264531 -3.736969 0.756915 4.782294 9.526355 -7.125000 0.000000 0.000000 81.192355 -18.391480 30.784692 -29.157471 31.243732 -4.633787 -1.182259 -5.483318 17.097008 7.125000 0.000000 0.000000 
-4.502017 18.096948 20.834605 0.394542 0.968617 38.244591 -11.030007 -14.508098 -32.229026 -2.728177 8.349161 15.922488 -6.975464 23.599234 -0.080332 0.025400 -1.028100 -2.826300 5.724145 26.294356 -35.795944 2.573288 -11.880219 21.678847 6.748009 -25.258405 -10.365705 -0.000000 -0.022400 0.061700 0.505928 1.106520 -53.942229 -0.327460 -0.215497 0.677729 5.984148 -8.277704 23.073767 2.056700 -3.833900 12.594500 -85.684307 17.863216 38.886410 21.167947 -25.268805 -3.738246 0.757015 4.783182 9.517385 -7.125000 0.000000 0.000000 81.202060 -18.386464 30.773002 -29.156469 31.244930 -4.634905 -1.187364 -5.482774 17.096319 7.125000 0.000000 0.000000 
-4.502017 18.096948 20.834605 0.392304 0.976946 38.248440 -11.024680 -14.509592 -32.235935 -2.727622 8.351651 15.926770 -6.973296 23.593951 -0.079400 0.025300 -1.026800 -2.822400 5.729395 26.289644 -35.798761 2.573739 -11.879881 21.677886 6.748663 -25.260782 -10.366033 -0.000000 -0.022500 0.061800 0.492002 1.104981 -53.942868 -0.328991 -0.212799 0.677381 5.979758 -8.258214 23.040847 2.053600 -3.824900 12.575100 -85.663562 17.854083 38.911735 21.169091 -25.270870 -3.738981 0.757437 4.783920 9.509854 -7.125000 0.000000 0.000000 81.212653 -18.382218 30.756834 -29.155609 31.246133 -4.635939 -1.190412 -5.483277 17.106315 7.125000 0.000000 0.000000 
-4.502121 18.096948 20.834605 0.388835 0.985375 38.252457 -11.016899 -14.513726 -32.241671 -2.727228 8.353750 15.930199 -6.971699 23.589377 -0.082055 0.025100 -1.023000 -2.812000 5.737072 26.282400 -35.801554 2.574371 -11.879061 21.676019 6.748841 -25.261506 -10.363436 -0.000000 -0.021800 0.059800 0.483420 1.105405 -53.943743 -0.329976 -0.210001 0.676787 5.971479 -8.237321 23.010332 2.048700 -3.815400 12.556800 -85.644464 17.846010 38.933094 21.172114 -25.274991 -3.740039 0.757817 4.784299 9.506003 -7.125000 0.000000 0.000000 81.223219 -18.378468 30.741414 -29.152049 31.243976 -4.635954 -1.196833 -5.481426 17.117216 7.125000 0.000000 0.000000 
-4.502329 18.096948 20.834501 0.384174 0.993818 38.255371 -11.008145 -14.518145 -32.246140 -2.726692 8.355864 15.933684 -6.970565 23.585830 -0.085662 0.024900 -1.019400 -2.802200 5.746412 26.275232 -35.803169 2.575131 -11.877683 21.673201 6.749250 -25.263068 -10.360002 0.000000 -0.021300 0.058400 0.479619 1.107359 -53.945491 -0.330559 -0.207077 0.673162 5.963450 -8.213010 22.986075 2.044100 -3.803900 12.542000 -85.627098 17.838329 38.953415 21.172838 -25.276329 -3.740356 0.759094 4.784335 9.502991 -7.125000 0.000000 0.000000 81.234701 -18.375651 30.724299 -29.145691 31.238674 -4.634659 -1.202612 -5.478771 17.136507 7.125000 0.000000 0.000000 
-4.502538 18.096948 20.834397 0.377041 1.001889 38.255629 -10.997407 -14.521892 -32.248024 -2.725955 8.357971 15.937643 -6.970748 23.585212 -0.088524 0.024900 -1.018600 -2.800000 5.758810 26.269640 -35.802247 2.576036 -11.875700 21.669884 6.749496 -25.264093 -10.356647 -0.000000 -0.018500 0.050700 0.478025 1.111287 -53.947120 -0.332801 -0.203208 0.667490 5.960614 -8.188398 22.964082 2.041900 -3.791900 12.528400 -85.608304 17.831933 38.972992 21.174356 -25.278307 -3.740704 0.760731 4.783405 9.501044 -7.125000 0.000000 0.000000 81.248890 -18.372298 30.706053 -29.135367 31.229371 -4.631436 -1.206687 -5.475518 17.156896 7.125000 0.000000 0.000000 
-4.502746 18.096948 20.834293 0.368981 1.010320 38.253582 -10.985591 -14.527665 -32.247865 -2.724881 8.360451 15.942948 -6.971377 23.585796 -0.092496 0.024900 -1.017900 -2.798100 5.774756 26.260818 -35.799158 2.577088 -11.872964 21.666099 6.748749 -25.261525 -10.350575 0.000000 -0.018200 0.049900 0.480025 1.116293 -53.949014 -0.335412 -0.199453 0.659394 5.959484 -8.161675 22.947999 2.040700 -3.778600 12.517700 -85.591087 17.826100 38.989864 21.174284 -25.278140 -3.740196 0.762423 4.781639 9.500748 -7.125000 0.000000 0.000000 81.263149 -18.368431 30.689187 -29.121625 31.216866 -4.627367 -1.210570 -5.473052 17.178835 7.125000 0.000000 0.000000 
-4.502954 18.096948 20.834085 0.360043 1.020247 38.250278 -10.973268 -14.532011 -32.248035 -2.723545 8.363536 15.949518 -6.972144 23.586977 -0.092766 0.025000 -1.020700 -2.805700 5.792354 26.252114 -35.794629 2.578324 -11.869818 21.661879 6.747944 -25.258883 -10.345943 0.000000 -0.017600 0.048500 0.485242 1.121937 -53.951417 -0.338648 -0.196109 0.649732 5.961908 -8.134320 22.938284 2.041300 -3.764600 12.510900 -85.573771 17.821594 39.005198 21.175022 -25.278597 -3.739862 0.764561 4.779628 9.500579 -7.125000 0.000000 0.000000 81.277520 -18.365232 30.674499 -29.108415 31.204142 -4.621998 -1.211557 -5.469187 17.203233 7.125000 0.000000 0.000000 
